<svg xmlns="http://www.w3.org/2000/svg" viewBox="0 0 743 1076"><path d="M235.07 1065.54c-9.53-3.55-21.27-14.33-30.2-27.74-6.18-9.28-14.68-27.34-20.53-43.6l-4.94-13.75.6 12.37c.33 6.8 1.2 16.06 1.93 20.58 1.52 9.38.89 14.62-2.4 19.94-5.31 8.6-18.27 11.72-28.23 6.81-7.35-3.62-23.56-17.81-32.33-28.3-18.1-21.68-29.93-43-35.74-64.4-1.78-6.55-2.18-10.81-2.22-23.5-.05-18 1.66-25.83 8.8-40.26l4.15-8.43-8-2.8c-34.14-11.96-60.65-34.31-76.3-64.36-8.6-16.5-9.87-24.99-5.14-34.26 4.28-8.38 10.5-12.27 22.36-13.95 20.65-2.93 35.04-17.86 47.55-49.37 7.32-18.42 13.32-48.27 15.02-74.69 3.12-48.7 4.7-64.46 9.03-90.45 5-29.95 12.44-59.65 20.81-82.97 3.97-11.05 3.97-11.05.94-15-7.7-10.08-19.46-29.14-25.27-40.96a201.4 201.4 0 0 1-16.13-45.12c-2.61-11.12-2.8-13.33-2.83-34.38-.03-18.06.32-24.18 1.78-31 4.72-22.1 14.8-44.82 22.5-50.69 5.18-3.95 11.23-5.72 16.62-4.86 2.35.38 30.61 14.28 68.48 33.7l64.47 33.04 13.56-4.54c7.45-2.5 17.6-5.3 22.55-6.2 12-2.2 21.43-4.52 21.97-5.4.24-.38 11.27-60 24.51-132.47 13.24-72.47 24.72-133.3 25.5-135.18 5.03-12.04 17.14-17.86 29.85-14.33 5.15 1.43 12.96 9.2 15 14.93.89 2.47 12.5 64.35 25.8 137.5a40486.9 40486.9 0 0 0 24.34 133.23c.09.13 5.3 1.53 11.6 3.13 9.81 2.48 19.98 5.98 32.45 11.15 2.92 1.21 5.25.11 70.5-33.33 40.05-20.52 69.13-34.84 71.53-35.22 5.49-.88 11.27.85 16.7 5 3.64 2.78 5.57 5.55 9.62 13.76 10.4 21.08 15.13 41.68 15.13 65.84 0 44.5-16.17 86.16-50.04 128.94l-6.73 8.5 2.96 9c14.27 43.4 22.45 90.9 26.28 152.5.8 12.92 2.12 28.22 2.94 34 6.5 46.18 22 81.86 41.31 95.15 5.57 3.83 11.13 5.74 20.02 6.87 11.98 1.53 19.05 6.62 22.78 16.38 3.55 9.3-.2 22.83-11.19 40.32-15.97 25.45-38.84 43.65-68.83 54.77a194 194 0 0 0-10.31 4c-.17.17 1.25 3.4 3.16 7.2 6.94 13.78 8.16 19.72 8.1 39.3-.06 16.15-.27 18.21-2.8 26.5-10.4 34.1-42.02 76.29-67.04 89.45-10.49 5.52-21.68 3.3-27.85-5.52-3.9-5.55-4.8-11.77-3.24-22.25a279 279 0 0 0 1.92-22.17l.62-13.5-4.87 14c-13.3 38.21-26.22 59.48-43.2 71.08-6.27 4.28-7.8 4.88-13.43 5.23-11.11.71-19.9-4.07-24.12-13.12-2.9-6.2-2.98-9.49-.8-29.31 2.19-19.92 2.2-54.82.03-70.89-1.82-13.47-4.48-24.67-7.54-31.74l-2.06-4.76-7.06 4.57c-16.82 10.88-39.4 20.2-63 25.99-15.27 3.74-35.88 3.99-51.7.61-23.04-4.92-45.2-15.37-62.54-29.49-5.67-4.62-5.67-4.62-7.7-1.77-1.1 1.56-3.34 6.84-4.96 11.72-4.95 14.97-6.3 25.35-6.83 52.88-.45 23.17-.3 26.3 2.12 42.86 1.43 9.82 2.6 19.22 2.6 20.88 0 8.04-5.64 17-13.1 20.8-5.21 2.67-14.31 3.4-19.29 1.55zm-4.2-121.6c3.64-23.1 8.31-37.29 16.2-49.15 2.49-3.74 4.9-7.04 5.37-7.32.46-.3-1.2-3.56-3.68-7.27-10.16-15.14-19.35-37.3-22.72-54.75-.84-4.4-2.23-14.98-3.07-23.5-3.19-32.33-11-70.8-19.15-94.3-4.4-12.69-10.12-25.04-15.9-34.32a106.07 106.07 0 0 1-12-27.38c-1.03-3.85-2.87-7.73-4.5-9.5-5.05-5.53-7.63-12.46-12.86-34.54-5.1-21.52-6.48-33.42-6.51-55.96-.03-22.18.86-29.96 5.42-47.68 5.49-21.3 14.15-40 26.69-57.59 7.02-9.84 25.02-28.72 35.3-37.02 17.68-14.27 44.26-29.34 65.6-37.22l10.08-3.72 3.12-17.1c1.72-9.4 2.97-17.23 2.8-17.41-.69-.69-16.45 3-25 5.85-32.75 10.88-64.39 35.23-87.59 67.38-36.98 51.26-58.66 124.96-63.96 217.5-2.96 51.59-8.5 80.62-21.1 110.55-13.72 32.57-32.49 52.36-57.76 60.89l-6.3 2.13 4.9 7.47c9.96 15.12 21.35 25.27 37.82 33.7 7.74 3.95 27.14 11.27 29.9 11.27.86 0 11.2-21.34 16.77-34.58 6.41-15.28 11.69-30.35 15.14-43.3 1.38-5.16 2.7-9.57 2.94-9.8.5-.52 31.68 5.39 32.43 6.13.83.83-4.63 20.84-9.55 35.05-9.86 28.46-26.87 64.15-41.17 86.4-11.4 17.72-14.03 25.06-14.05 39.12-.03 17.45 7.05 34.45 23.91 57.44l6.57 8.95.74-15.45c1.88-39.2 9.42-62.75 22.07-68.87 10.3-4.99 23.44-.5 28.6 9.78 1 2 3.5 9.93 5.55 17.63 9.85 36.92 14.97 52.75 22.16 68.5l3.88 8.5.63-28c.4-18.14 1.21-31.7 2.28-38.5zm288.69 49.34c4.95-12.34 7.48-20.07 15.46-47.13 4.1-13.92 8.14-26.94 8.98-28.95 4.07-9.74 11.07-14.58 21.13-14.6 10.33-.04 17.01 5.83 22.36 19.6 5.08 13.08 7.05 25.19 7.68 47.2l.58 19.95 3.4-3.95c10.62-12.35 23.4-35.37 26.9-48.45 2.21-8.28 2.3-22.73.2-29.57-2.73-8.84-13.46-27.43-15.83-27.43-1.21 0-13.68-21.23-21.45-36.5a320.2 320.2 0 0 1-20.9-52.06c-4.51-15.26-8.27-34.18-7.03-35.4.93-.92 30.08-3.99 31.92-3.36.55.2 1.84 4.73 2.87 10.08 2.41 12.55 9.48 34.48 15.84 49.18 6.2 14.32 15.6 32.05 17.33 32.71 1.82.7 15.24-3.2 24.65-7.17 17.97-7.58 34.27-20.85 44.5-36.22 3.06-4.6 5.39-8.48 5.19-8.64-.2-.16-3.62-1.32-7.6-2.57-10.22-3.23-18.47-8.36-27.91-17.35-12.28-11.7-20.8-24.81-28.7-44.2-11.72-28.73-17.99-61.41-20.15-105-.33-6.6-1.27-18.98-2.1-27.5-12.58-130.3-57.52-217.56-130.92-254.26-9.6-4.8-23.77-10.19-25.26-9.6-.7.28 6.46 43.45 7.96 47.95.2.6 4.3 2.61 9.1 4.47 11.8 4.56 30.92 14.41 41.5 21.38 46.44 30.58 72.96 71.6 79.83 123.49 1.9 14.44 1.39 40.28-1.15 56.57-2 12.87-8.58 39.05-11.56 45.98-2.55 5.92-8.75 11.7-13.48 12.6-2.96.55-3.46 1.22-5.9 7.92-1.47 4.02-5.41 11.74-8.76 17.16a206.27 206.27 0 0 0-9.52 17.22c-13.12 28.2-24.28 77.23-27.32 120.02-2.15 30.25-5.55 44.8-14.56 62.23a133.48 133.48 0 0 1-9.46 15.39c-2.7 3.61-4.92 6.98-4.92 7.49 0 .5 1.33 3 2.95 5.56 1.62 2.56 4.36 8.53 6.08 13.29 7.09 19.49 9.95 41.12 10.02 75.63.05 24 .05 24 2.48 19.34 1.34-2.57 3.84-8.2 5.57-12.5zm-127.89-81.74c33.47-8.58 60.96-24.67 76.36-44.68 8.33-10.82 15.33-26.18 16.92-37.12.63-4.3.63-4.3-8.18-10.13-11.04-7.32-33.98-18.58-45.8-22.48-42.49-14.01-85.69-10.9-128.03 9.22-11.06 5.26-26.31 15.07-31.53 18.3-8.89 5.49-9.63 4.75-7.43 10.95 17.3 45.97 61.24 78.77 106.2 79.26 6.28.07 11.3-.7 21.5-3.32zm-59.28-50.51c-2.4-2.4-2.93-3.77-2.93-7.58 0-9.64 10-14.04 17.24-7.58 2.8 2.5 3.26 3.57 3.26 7.58 0 4-.46 5.08-3.26 7.58-4.56 4.08-10.24 4.07-14.31 0zm68.84 0c-2.8-2.5-3.27-3.58-3.27-7.58s.47-5.08 3.27-7.58c7.23-6.46 17.23-2.06 17.23 7.58s-10 14.04-17.23 7.58zm-115.27-84.15a241.2 241.2 0 0 1 54-18.6c12.26-2.6 14.46-2.77 38.5-2.77 24.07 0 26.24.16 38.5 2.77 19.71 4.2 35.99 10 55.1 19.66l17.1 8.64 1.24-9.56c6.36-49.54 21.05-97.46 37.95-123.8 2.87-4.47 6.05-10.52 7.08-13.45 2.04-5.84 5.03-19.46 5.03-22.93 0-2.98-11.52-24.85-19.63-37.28-16.15-24.75-37.58-46.55-65.87-67.05a157.22 157.22 0 0 1-13.84-11.43c-5.4-5.2-5.94-5.49-7-3.76-9.72 15.8-27.62 35.72-41.36 46.03a173.3 173.3 0 0 1-65.8 30.57c-19.29 4.49-29.15 5.47-55 5.5-24.3.03-25.12-.04-29.45-2.31-2.45-1.3-5-3.09-5.67-4-1.45-1.98-1-2.45-6.63 6.91-5.97 9.93-14.64 27.28-19.64 39.3-3.98 9.55-4 9.64-2.62 14.87 2.38 9 4.4 13.86 8.42 20.22 17.15 27.17 30.73 71.06 37.58 121.54 2.77 20.36 1.42 18.68 10.3 12.85 4.24-2.78 14.01-8.15 21.71-11.92zm35.95-97.82c-8.63-3.91-14.53-14.92-13.04-24.27 3.44-21.48 31.2-27.23 42.4-8.8 3.12 5.12 3.3 5.94 3 13.13-.27 6.6-.73 8.27-3.32 12-6.04 8.71-19.34 12.35-29.04 7.94zm83.43-.9a24.5 24.5 0 0 1-8.36-7.09c-2.6-3.7-3.05-5.32-3.33-11.95-.3-7.2-.11-8.01 3-13.13 9.2-15.13 31.91-14.53 39.86 1.05 4.5 8.83 3.42 18.67-2.86 26-7.1 8.3-18.32 10.33-28.3 5.12zm160.18-106.2c1.62-14.03.67-38.78-1.91-50.01-4.37-19.03-12.04-36.03-22.6-50.09-16.67-22.22-45.82-43.98-73.56-54.92-4.9-1.93-4.9-1.93-5.55 1.79a264.8 264.8 0 0 1-6.95 30.17c-3.35 11.55-3.35 11.55-1.06 15.05 4.76 7.27 12.05 14.15 26.82 25.33 23.74 17.94 39.2 32.71 54.95 52.47 7.26 9.11 18.21 25.5 23.51 35.2 2.08 3.8 4.09 6.6 4.46 6.2.38-.38 1.23-5.42 1.9-11.2zm-371.06 2.24c5.6-10.85 20.49-33.33 28.85-43.56 15.3-18.73 31.8-34.1 56.15-52.32 19-14.2 27.55-23.55 34.88-38.11 8.89-17.65 7.86-32.34-2.92-41.57-2.37-2.03-4.7-3.7-5.17-3.7-2.2 0-19.95 7.52-30.54 12.94-42.16 21.54-70.79 52.8-83.15 90.81-4.98 15.33-6.6 26.76-6.6 46.76 0 16.54 1.9 37.52 3.38 37.49.34-.01 2.65-3.94 5.12-8.74zm109.5-30.4c47.04-6.83 83.54-31.64 104.97-71.35 10.06-18.63 17.56-42.96 20.47-66.43 1.2-9.62.76-10.61-6.44-14.37-9.77-5.11-23.82-.65-37.31 11.84-12.75 11.8-16.61 18.02-30.2 48.65-13.77 31.08-31.54 57.27-54.95 81.03-14.11 14.31-14.46 13.25 3.46 10.64zm312.9-129.1c9.67-14.53 17.53-30.33 22.53-45.3 5.43-16.26 7.24-27.15 7.23-43.45-.01-15.33-1.58-24.97-6.3-38.75l-3.18-9.25-12.09 6.35c-6.65 3.5-29.51 15.26-50.8 26.14-27.92 14.26-38.53 20.15-38 21.08.4.71 5.97 6.28 12.4 12.38l11.68 11.1 14.32-9.37 23.67-15.52c8.32-5.47 9.92-6.16 14.35-6.16 10.25 0 17.22 6.64 17.22 16.41 0 8.92-1.54 10.51-25.7 26.49-21.76 14.4-21.76 14.4-20.04 17a416.2 416.2 0 0 1 18.9 31.53c3.07 5.81 5.75 10.57 5.95 10.57.2 0 3.74-5.06 7.86-11.25zm-470.4-10.96a307.32 307.32 0 0 1 12.25-19.22c3.17-4.43 5.64-8.37 5.5-8.74-.13-.37-7.9-5.77-17.25-12-14.78-9.85-17.29-11.91-19.25-15.8-2.72-5.39-2.8-9.2-.34-14.63 2.89-6.36 7.23-8.9 15.2-8.9 6.62 0 6.62 0 25.78 12.77l19.17 12.77 8.22-7.28c4.52-4 10.6-9.02 13.52-11.14 2.91-2.12 5.08-4.08 4.82-4.34-.26-.26-21.77-11.39-47.8-24.72-34.2-17.53-47.52-23.9-48.07-22.99-1.66 2.78-6.58 19.4-7.83 26.43-1.88 10.66-1.62 31.49.55 43 2.48 13.2 7.59 28.34 13.97 41.41 5.15 10.56 13.49 24.62 14.56 24.56.28-.02 3.43-5.05 7-11.18zm223.67-31.84c13.95-10.7 28.57-16.11 43.33-16.06 5.23.01 10.97.47 12.75 1 2.98.89 3.25.79 3.2-1.21-.1-3.19-3.37-19.44-4.06-20.13-.33-.32-5.21.53-10.86 1.9-22.31 5.4-45.54 5.44-69.12.11-5.72-1.3-10.49-2.28-10.58-2.2-.1.1-1.55 7.53-3.21 16.53l-3.03 16.36 4.7 4.33c4.71 4.34 4.71 4.34 17.5 4.38 12.79.04 12.79.04 19.38-5.01zm23.1-64.98c6.67-.84 24.9-5.3 25.96-6.36.32-.33-10.47-59.7-10.94-60.16-.19-.19-3.7.57-7.81 1.68-10.17 2.75-29.79 3.5-40.48 1.56-4.4-.8-8.09-1.37-8.2-1.28-.11.09-2.56 13.1-5.43 28.9-3.42 18.77-4.9 29.06-4.25 29.7.54.54 4.64 1.9 9.1 3.04 15.03 3.8 27.91 4.7 42.05 2.92zm-2.54-97.44c3.1-.8 6.96-2.05 8.57-2.75 2.93-1.28 2.93-1.28-7.85-60.12-5.93-32.36-10.94-58.99-11.13-59.18-.2-.2-5.33 26.96-11.42 60.33l-11.07 60.69 4.59 1.15c6.6 1.67 21.7 1.6 28.3-.12z"/><path fill="#fff" d="M256.4 789.9a588.9 588.9 0 0 1-2.46-16.36c-7.13-50.3-19.45-89.57-37.8-120.55-4.12-6.95-8.32-18.51-8.32-22.91 0-4.9 9.81-26.82 20.03-44.78a585.24 585.24 0 0 1 6.67-11.54c.6-.89 1.23-.71 3.42.96 5.66 4.31 7.7 4.73 25.08 5.09 17.9.37 39.18-.75 50.06-2.64 37.04-6.45 68.31-21.47 91.69-44.06 10.98-10.6 20.21-21.3 25.93-30.02 2.09-3.2 4.18-5.83 4.64-5.85.46-.03 3.39 2.24 6.5 5.04s10 8.37 15.29 12.37c23.67 17.88 40.54 34.22 54.8 53.1 12.59 16.66 27.84 44.19 27.82 50.21-.01 4.82-3.9 19.88-6.61 25.58-1.48 3.1-3.96 7.64-5.53 10.09-12.15 19-24.8 54.68-31.95 90.1-3.02 14.96-6.36 36.02-6.36 40.1 0 1.06-.15 1.93-.34 1.93-.18 0-7-3.3-15.17-7.32-23.24-11.45-37.42-16.46-60.18-21.28-7.66-1.63-10.31-1.76-35.48-1.73-25.24.02-27.8.15-35.48 1.81-27.56 5.95-55.98 17.1-76.8 30.17-4.09 2.56-7.79 4.65-8.22 4.65-.44 0-1-.97-1.24-2.16zm170.4-111.06c8.08-3.9 13.31-13.03 12.61-22.04-1.02-13.18-10.2-21.92-23.04-21.92-12.8 0-23.2 9.73-23.24 21.73-.03 7.49 1.31 11.96 4.79 15.9 7.7 8.77 18.8 11.2 28.87 6.33zm-83.48-.71c4.97-2.72 9.27-7.43 10.36-11.38.43-1.54.79-5.86.79-9.58 0-6.57-.1-6.93-3.14-11.64-12.7-19.67-43.04-10.8-42.86 12.52.05 6.35 2.01 11.09 6.7 16.2 5.1 5.55 8.25 6.76 16.83 6.44 6.07-.22 7.71-.6 11.32-2.56z"/><path fill="#fff" d="M354.87 913.02c-9.44-1.67-20.81-5.54-30.23-10.29-26.26-13.23-48.67-37.89-59.31-65.25-2.35-6.02-2.38-6.28-1-7.65 2.97-2.91 34.13-21 43.02-24.96 40.89-18.21 81.95-20.78 121.95-7.62 17.06 5.61 49.77 22.57 54.38 28.2 3.01 3.66-3.78 23.03-12.75 36.4-15.86 23.59-46.44 41.8-84.84 50.51a82 82 0 0 1-31.22.66zm-8.6-51.18c3.41-2.6 4.51-5.26 4.03-9.7-.78-7.14-9.2-11.8-15.51-8.6-5.33 2.69-7.46 12.03-3.77 16.5 4.13 5.01 10.12 5.71 15.25 1.8zm69.01-.1c7.03-6.72 2.83-19.22-6.44-19.22-3.23 0-7.48 2.05-9.45 4.55-1.13 1.44-1.55 3.19-1.55 6.44 0 4.01.26 4.73 2.56 6.95a19.13 19.13 0 0 0 4.53 3.3c3.2 1.33 7.8.44 10.35-2.01zm188.71-445.57a539.73 539.73 0 0 0-10.87-18.72l-7.88-12.93-1.62-2.68 2.31-1.85c1.28-1.02 9.54-6.7 18.38-12.64 19.1-12.84 24.15-17.18 25.4-21.8 1.2-4.46.4-10.24-2-14.33-3.67-6.27-14.03-9.41-21.16-6.43-1.4.59-8.92 5.26-16.73 10.37a7337.4 7337.4 0 0 1-21.88 14.3l-7.7 5-11.85-11.56-11.85-11.56 3.73-2.32c7.96-4.96 95.9-50.2 96.65-49.72.8.49 5.85 16.7 7.34 23.54 1.73 7.91 2.36 28.2 1.2 38.24-2.68 22.93-13.25 49.51-29.42 73.91-3.52 5.31-6.63 9.66-6.92 9.66-.28 0-2.6-3.81-5.13-8.48zm-469.37-9.07c-11.85-19.64-20.17-40.7-23.3-58.93-3.64-21.32-2.16-40.64 4.75-61.7 1.61-4.92 2.3-6.1 3.58-6.1 1.34 0 66.26 32.42 87.24 43.56l6.55 3.48-11.17 9.4c-6.15 5.16-12 10.06-13.01 10.89l-1.84 1.5-16.9-11.1c-9.3-6.09-18.1-11.7-19.57-12.46-2.82-1.46-9.26-1.85-14.26-.85-9.02 1.79-14.09 14.24-9.43 23.17 2.09 4.01 5.3 6.61 22.48 18.26 7.22 4.89 13.3 9.16 13.5 9.48.2.32-2.9 5.58-6.9 11.67-3.99 6.1-9.31 14.5-11.82 18.67-2.51 4.16-4.88 7.57-5.27 7.57-.39 0-2.47-2.93-4.63-6.5z"/><path fill="#b4c3ff" d="M362.16 209.27c-2.06-.45-3.74-1.12-3.74-1.48 0-.97 17-93.57 19.56-106.59l2.22-11.24.96 4.28c1.3 5.79 13.8 73.56 16.7 90.55 1.3 7.49 2.34 15.37 2.34 17.5v3.9l-5.32 1.73c-4.33 1.4-7.53 1.77-17.15 1.95-6.5.12-13.5-.15-15.57-.6zm2.19 97.07c-4.99-.78-16.94-3.63-19.93-4.76-1.4-.54-1.77-1.29-1.77-3.65 0-3.63 7.06-44.81 9.16-53.5.39-1.6.52-1.6 7.25-.5 8.7 1.4 31.16.84 39.17-1 10.29-2.35 9.6-2.33 10.12-.25.9 3.56 9.22 49.82 9.7 53.88l.47 4.04-4.72 1.33c-13.32 3.74-18.8 4.58-31.73 4.86-7.16.16-15.13-.04-17.72-.45zm-26.04 69.11c-1.3-.58-3.94-2.45-5.86-4.17l-3.5-3.13 3-16.1a825.31 825.31 0 0 1 3.1-16.21c.06-.07 4.9.87 10.75 2.07 27.97 5.76 44.36 5.34 77.76-1.97 1.54-.34 1.8.26 3.32 7.7.9 4.45 1.75 9.14 1.88 10.44l.22 2.37-4.73-.4c-20.84-1.73-35.99 2.3-52.07 13.87-3.45 2.47-7.42 4.98-8.81 5.57-3.43 1.44-21.77 1.41-25.06-.04z"/><path fill="#f09cff" d="M223.3 999.03c-5.12-11.58-10.97-29.4-18.13-55.22-7.26-26.16-8.56-29.72-12.25-33.4-4.18-4.19-8.22-5.88-14.9-6.25-7.56-.41-11.49 1.09-16.3 6.23-9.54 10.2-14.57 30.91-16.63 68.5l-.54 9.83-1.92-2.33a308.96 308.96 0 0 1-9.1-12.98c-14.14-20.97-19.74-37.34-18.46-53.95.89-11.64 2.84-16.27 16.09-38.22 19.56-32.42 38.47-76.18 46.26-107.06 2.39-9.49 2.48-11.05.64-11.59-1.3-.38-22.55-4.5-28.65-5.54l-2.82-.49-3.8 12.83c-6.5 21.93-13.69 40.31-24.52 62.69-4.66 9.62-6.14 12.02-7.41 12.02-2.33 0-18.2-5.94-26.43-9.89-10.68-5.12-18.93-10.92-26.82-18.84-6.25-6.28-16.94-20.35-16.94-22.31 0-.39 2.02-1.34 4.48-2.12 6.37-2 18.01-8.13 23.53-12.39C95.4 757.98 114.1 716.43 121 662.37c1.64-12.9 2.36-21.12 4.46-50.86 5.97-84.76 24.83-151.07 56.94-200.26 8.38-12.85 14.93-21.03 25.8-32.23 24.72-25.45 50.47-40.7 81.44-48.24 5.76-1.4 10.6-2.41 10.77-2.24.44.44-4.92 31.62-5.65 32.9-.33.56-5.75 3.08-12.03 5.59-22.77 9.07-46.38 22.53-62.69 35.72-7.21 5.84-24.11 22.77-30.97 31.04-14.58 17.58-25.84 40.61-32.33 66.16-4.25 16.73-4.5 19.35-4.47 46.51.04 28.77.65 33.98 7.11 60.2 4.04 16.37 6.56 23.28 10.25 28.12 3.56 4.66 4.1 5.8 7.12 15.12a118.5 118.5 0 0 0 6.5 15.48c12.05 22.74 14.5 27.68 17.34 34.96 9.96 25.59 16.97 59.01 23.02 109.86 3.13 26.28 9.8 45.68 23.29 67.83l5.23 8.57-4.53 6.81c-12.97 19.48-19 47.26-19.36 89.05a372.4 372.4 0 0 1-.6 17.75l-.5 7.5zm67.86-454.25c-.28-.28 3.82-5.1 9.13-10.72 14.4-15.26 23.4-26.37 32.96-40.67 8.35-12.5 13.38-22.01 30.15-57.06 6.88-14.36 10.67-20.25 17.83-27.74 11.37-11.89 23.3-18.63 32.94-18.63 4.42 0 13.03 3.72 14.36 6.2 1.3 2.43 1.02 7.41-1.09 19.44-12.67 72.28-55.8 117.02-123.03 127.67-4.34.68-8.98 1.42-10.3 1.64-1.34.21-2.66.16-2.95-.13zm221.03 450.7c-.07-15.39-1.31-41.34-2.41-50.31-2.16-17.61-6.89-34.14-13.16-46.03-4.18-7.93-4.35-6.82 2.52-16.72a140.7 140.7 0 0 0 8.16-13.8c9-17.77 11.46-28.1 14.32-60.09 3.55-39.62 9.72-71.75 19.3-100.44 5.2-15.56 8.5-22.59 18.82-40.26a159.8 159.8 0 0 0 7.08-14.13c3.24-7.48 3.5-7.83 6.66-8.88 4.88-1.63 10.6-7.16 13.05-12.63 2.39-5.33 8.37-28.03 10.75-40.78 3.09-16.6 4.22-45.3 2.37-60.34-4.08-33.18-17.1-63.68-37.68-88.32-20.27-24.25-47.38-43.19-83.71-58.47-4.12-1.73-7.91-3.5-8.42-3.91-1.18-.97-2.03-4.95-5.33-25.06-4.15-25.25-4-23.03-1.44-22.43 3.13.73 18.18 6.9 23.97 9.82 27.38 13.83 53.46 37.93 72.7 67.2 25.66 39.02 43.24 90.04 52.5 152.36 3.13 21.01 4.48 34.1 6.38 61.87 1.82 26.56 3.22 39.26 6 54.4 7.45 40.7 20.8 71.37 39.47 90.74 10.92 11.33 19.32 16.88 31.96 21.14 3.35 1.13 6.1 2.4 6.11 2.84.06 2.32-9.05 14.34-16.46 21.72-9.1 9.06-17.07 14.75-28.07 20.04-7.64 3.67-23.59 9.1-26.74 9.1-2.3 0-3.5-1.58-8.97-11.84-10.01-18.74-20.61-47-24.98-66.62-3.04-13.65-2.9-13.46-9.1-13.15-6.7.33-24.74 2.37-26.34 2.99-1.6.61-1.57 1.65.37 11.9 6.17 32.54 20.04 67.01 41.16 102.34 2.6 4.33 6.08 9.3 7.74 11.03 3.93 4.1 10.34 14.9 13.56 22.87 2.48 6.15 2.54 6.6 2.52 18.13-.02 10.87-.2 12.34-2.22 18.14-4.4 12.62-14.53 30.75-23.77 42.55l-4.73 6.04-.17-8.53c-.1-4.69-.55-14.2-1.02-21.14-2.1-31.55-10.68-52.07-23.25-55.59-4.86-1.36-13.35-.66-17.46 1.44-4.33 2.2-8.56 7.28-10.59 12.7-.9 2.41-5.15 15.92-9.42 30.02-10.5 34.57-14.38 45.58-19.66 55.82l-2.32 4.5z"/><path fill="#8effeb" d="M188.56 579.38c-2.07-12.65-2.68-41.66-1.17-55.18 1.74-15.68 7.76-34.26 15.77-48.7 6.56-11.82 14-21.55 24.77-32.38 14.5-14.6 27.31-23.95 46.28-33.8 10.3-5.36 29.69-13.84 31.63-13.84 2.04 0 9.23 7.18 11.36 11.35 7.21 14.12-1.3 37.54-20.41 56.12-4.05 3.93-12.86 11.38-19.58 16.55-23.74 18.26-39.5 32.99-53.06 49.6-8.35 10.21-23.5 32.84-30 44.78-2.53 4.65-4.72 8.46-4.86 8.46-.14 0-.47-1.33-.73-2.96z"/><path fill="#77d9ff" d="M557.16 572.67c-20.24-33.66-39.02-54.59-72.58-80.85-21.56-16.88-31.55-27.1-31.55-32.28 0-1.25 1.24-6.68 2.75-12.08 1.5-5.39 3.67-14.41 4.8-20.05 1.13-5.64 2.31-10.52 2.63-10.86 1.41-1.49 23.54 9.46 36.28 17.97 23.15 15.45 40.78 33.9 50.86 53.26 11.41 21.9 15.43 39.22 15.42 66.46 0 11.46-1.14 25.06-2.27 27.1-.32.6-2.82-2.81-6.34-8.67z"/></svg>
